<?xml version="1.0" encoding="utf-8"?>
<!-- Generator: Adobe Illustrator 19.1.1, SVG Export Plug-In . SVG Version: 6.00 Build 0)  -->
<svg version="1.1" id="Capa_1" xmlns="http://www.w3.org/2000/svg" xmlns:xlink="http://www.w3.org/1999/xlink" x="0px" y="0px"
	 viewBox="0 0 22.4 22.4" style="enable-background:new 0 0 22.4 22.4;" xml:space="preserve">
<style type="text/css">
	.st0{fill:#FFFFFF;}
</style>
<g id="group-121" transform="translate(-4494.359 -1278)">
	<path id="Shape-3" class="st0" d="M4511.8,1288.8c-0.1,0.1-0.3,0.2-0.5,0.2c-0.1,0-0.2,0-0.3-0.1c-0.3-0.1-0.5-0.4-0.5-0.7v-2.4h-2
		c-2.7,0-4.4,0.5-5.4,1.6c-1,1.2-1.3,3-0.9,5.8c0,0.2-0.1,0.4-0.2,0.4c0,0-0.1,0-0.2,0c-0.1,0-0.2-0.1-0.3-0.2
		c-0.1-0.1-2.1-2.9-2.1-5.4c0-3.3,1-7.1,9.1-7.1h2v-2.4c0-0.4,0.4-0.8,0.8-0.8c0.2,0,0.4,0.1,0.5,0.2l4.8,4.8c0.3,0.3,0.3,0.8,0,1.1
		L4511.8,1288.8L4511.8,1288.8z"/>
	<path id="Shape-4" class="st0" d="M4516.7,1295.8c0,2.5-2,4.6-4.6,4.6c0,0,0,0,0,0h-13.2c-2.5,0-4.6-2-4.6-4.6v-13.2
		c0-2.5,2-4.6,4.6-4.6h4c0.3,0,0.5,0.2,0.5,0.5c0,0.3-0.2,0.5-0.4,0.5c-0.7,0.2-1.4,0.6-2.1,1c-0.1,0-0.2,0.1-0.3,0.1h-1.8
		c-1.4,0-2.5,1.1-2.5,2.5v13.2c0,1.4,1.1,2.5,2.5,2.5h13.2c1.4,0,2.5-1.1,2.5-2.5v-3.4c0-0.2,0.1-0.4,0.3-0.5
		c0.3-0.1,0.6-0.3,0.8-0.6c0.2-0.2,0.5-0.2,0.7,0c0.1,0.1,0.1,0.2,0.2,0.4L4516.7,1295.8L4516.7,1295.8z"/>
</g>
</svg>
